<svg width="54" height="54" viewBox="0 0 54 54" fill="none" xmlns="http://www.w3.org/2000/svg">
<path d="M27.7473 3.73132C28.7629 3.45155 29.8564 3.84024 30.4651 4.71863C32.1803 7.19408 33.9122 10.9377 32.9133 14.7928C32.9097 14.807 32.9065 14.8217 32.9026 14.8358C32.3374 16.869 30.71 17.9211 29.9612 18.4276C30.9876 18.7923 32.0157 19.2294 33.0315 19.787C32.9315 18.6064 32.6886 16.434 34.3918 14.3514C35.4929 13.0054 37.1841 12.0927 38.6467 11.5135C40.1637 10.9129 41.8255 10.518 43.1946 10.4227L43.4602 10.4188C44.0773 10.4416 44.6681 10.6921 45.1145 11.1278C45.5873 11.5894 45.8508 12.1945 45.8928 12.8143C45.93 13.3636 45.7871 13.7977 45.6838 14.0419C45.4892 14.5018 45.2032 14.8251 45.0872 14.953C44.8163 15.2515 44.4783 15.5305 44.3557 15.6337C44.3451 15.6426 44.3348 15.6502 44.3254 15.6581C43.7032 16.4998 43.7564 17.5584 44.1809 19.9979C44.5628 22.193 45.3458 25.9015 42.6086 28.9686C42.5734 29.0167 42.5375 29.0645 42.5012 29.1122C43.1014 29.7395 43.5653 30.3941 43.9543 30.9677C43.9706 30.9907 43.9877 31.0133 44.0032 31.037C45.4634 33.2729 45.5108 36.0457 44.4514 38.1981C43.3467 40.4425 40.9845 42.0665 37.9299 41.6639V41.6649C37.916 41.6634 37.9013 41.6599 37.886 41.6581C37.8757 41.6567 37.865 41.6566 37.8547 41.6552V41.6542C37.6502 41.6291 37.3418 41.5799 37.0051 41.4589C36.1016 42.8338 34.9188 44.1932 33.3362 45.1532L33.3352 45.1522C32.687 45.5641 31.9816 45.8894 31.4602 46.1317C30.3295 46.6573 29.8792 46.9168 29.6497 47.1913C29.6439 47.1989 29.6211 47.2289 29.5774 47.2938C29.5197 47.3795 29.455 47.4811 29.3655 47.6219C29.1858 47.9046 28.8824 48.3892 28.5266 48.8153C28.2242 49.1774 27.5631 49.9026 26.5295 50.1864C26.5224 50.1884 26.5152 50.1903 26.5081 50.1923C26.5021 50.1939 26.4965 50.1966 26.4905 50.1981L26.4895 50.1971C25.3931 50.4903 24.1378 50.3143 23.385 50.1757C22.5002 50.0127 21.6283 49.7625 21.0618 49.5507C20.9245 49.4993 20.7933 49.435 20.6682 49.3612C20.4627 49.3502 20.2568 49.3146 20.0559 49.2518C19.6983 49.14 18.7677 48.7532 18.0559 48.4452C17.6666 48.2767 17.2673 48.0991 16.9495 47.9481C16.7951 47.8748 16.6293 47.7931 16.4836 47.7137C16.4148 47.6763 16.3104 47.6182 16.2004 47.5458C16.1467 47.5104 16.0557 47.4485 15.9534 47.3641C15.9445 47.3568 15.932 47.3451 15.9153 47.3309C15.8505 47.277 15.79 47.2213 15.7336 47.1639C15.4487 47.0688 15.1808 46.9241 14.9446 46.7313C14.7461 46.5694 14.521 46.4115 14.2034 46.1903C13.8797 45.965 13.4382 45.658 13.0071 45.2909C11.8536 44.4775 11.1323 43.3794 10.9836 42.038C10.8597 40.9186 11.1934 39.8436 11.3284 39.3563C11.4224 39.0171 11.4797 38.7875 11.5139 38.6122C10.8143 36.0964 10.5174 33.8912 10.7756 31.6366C10.851 30.979 10.9725 30.3336 11.135 29.6913C11.1229 29.6845 11.1099 29.6787 11.0979 29.6718C7.65785 27.6749 7.16367 22.8576 9.71021 20.0604C11.7199 17.6761 14.5261 17.3602 16.6594 17.3925C16.9557 15.7243 17.5923 14.357 18.5178 13.2225C19.8033 11.647 21.4992 10.7337 22.6682 10.0819C24.5591 9.02767 25.3419 8.48666 25.6438 7.33289C25.6435 7.32395 25.6442 7.31448 25.6438 7.30457C25.6384 7.1531 25.6118 6.65695 25.6868 6.17468C25.7397 5.83486 26.0094 4.36304 27.5461 3.79675L27.7473 3.73132ZM30.2102 37.1395C29.7268 37.1611 29.2631 37.3009 28.843 37.5565C28.9929 37.6127 29.1413 37.6581 29.2854 37.6893C29.8213 37.8053 30.0898 37.7049 30.2356 37.6014L30.4631 37.4237C30.5541 37.3474 30.6511 37.2575 30.7512 37.161C30.5012 37.1384 30.3077 37.1352 30.2102 37.1395ZM18.3391 31.536C18.3164 31.8592 18.3248 32.099 18.3352 32.2001L18.344 32.2489C18.3776 32.3844 18.5141 32.6702 19.0032 33.0126C19.0944 33.0764 19.1906 33.1343 19.2883 33.1893C19.2625 32.9237 19.2147 32.683 19.1448 32.4979L19.1018 32.3973C19.0959 32.3867 19.0746 32.3494 19.0305 32.285C18.9724 32.2001 18.891 32.0928 18.7874 31.9696C18.6566 31.8141 18.5044 31.6522 18.342 31.495C18.341 31.5087 18.3401 31.5224 18.3391 31.536ZM44.2375 15.7333C44.2362 15.7345 44.2352 15.7357 44.2346 15.7362C44.2359 15.7351 44.2394 15.7322 44.2444 15.7274C44.2417 15.7298 44.2394 15.7317 44.2375 15.7333Z" fill="#FFD85F" stroke="#963B45" stroke-width="5" stroke-linejoin="round"/>
<path d="M28.0129 4.69617C28.6221 4.5285 29.2777 4.76123 29.6428 5.28796C31.3022 7.68281 32.8342 11.1137 31.9456 14.5428C31.9434 14.5512 31.941 14.5599 31.9387 14.5682C31.4702 16.253 30.1047 17.1199 29.3372 17.6434C28.6929 18.0829 28.3741 18.3292 28.2014 18.579L28.136 18.6874C28.1283 18.7019 28.0998 18.7644 28.0696 18.8661C29.6215 19.3236 31.1595 19.8857 32.6555 20.7206L33.0061 20.9218L33.0686 20.9608C33.3674 21.1576 33.6264 21.3508 33.8274 21.5009C33.8649 21.5289 33.9002 21.5547 33.9329 21.579C33.9415 21.566 33.9503 21.5527 33.9592 21.5389C34.1202 21.0804 34.102 20.5775 34.0286 19.7089C33.9281 18.5199 33.7388 16.7285 35.1653 14.9843H35.1663C36.1075 13.8337 37.6109 12.9992 39.0149 12.4432C40.4515 11.8744 42.0124 11.5079 43.2639 11.4208L43.4231 11.4178C43.7934 11.4314 44.1474 11.5822 44.4153 11.8436C45.1002 12.5121 44.8944 13.3415 44.7629 13.6522C44.6359 13.9525 44.4435 14.1747 44.3469 14.2811C44.1307 14.5194 43.8502 14.7519 43.7122 14.868C43.6821 14.8934 43.6566 14.9154 43.6331 14.9354C43.6198 14.9467 43.6079 14.9561 43.5979 14.9647C42.5938 16.2269 42.7754 17.755 43.1956 20.1698C43.5945 22.4627 44.2378 25.6815 41.8264 28.3436C41.6125 28.638 41.3796 28.9222 41.1262 29.1942C42 29.9229 42.6214 30.7811 43.1516 31.5643H43.1506C43.1552 31.5711 43.1608 31.5771 43.1653 31.5839C44.4237 33.5107 44.4642 35.9059 43.554 37.7557C42.6109 39.6718 40.6141 41.0381 37.9954 40.6659V40.6639C37.7351 40.6327 37.35 40.5667 37.0002 40.3602C36.8983 40.3 36.78 40.2163 36.6643 40.1034C36.6128 40.1921 36.5631 40.2821 36.51 40.37C35.6121 41.8576 34.4291 43.3207 32.8167 44.2987L32.8157 44.2977C32.2302 44.672 31.5798 44.9733 31.0393 45.2245C29.9602 45.7261 29.2819 46.0715 28.8821 46.5497C28.8129 46.6324 28.7121 46.7853 28.5217 47.0848C28.3342 47.3798 28.0657 47.8064 27.759 48.1737C27.4852 48.5017 26.9885 49.024 26.261 49.2225L26.262 49.2235C26.2592 49.2243 26.2559 49.2247 26.2532 49.2255C26.2479 49.2269 26.2428 49.229 26.2375 49.2303L26.2366 49.2294C25.3771 49.4611 24.3166 49.3304 23.5667 49.1923C22.736 49.0393 21.9208 48.8042 21.4124 48.6141C21.2498 48.5533 21.1001 48.4644 20.969 48.3534C20.7651 48.3762 20.5561 48.3597 20.3547 48.2968C20.0587 48.2042 19.1819 47.8429 18.4524 47.5272C18.0678 47.3608 17.6816 47.1885 17.3792 47.0448C17.2307 46.9743 17.0839 46.9021 16.9622 46.8358C16.9037 46.804 16.8266 46.7611 16.7502 46.7108C16.7129 46.6862 16.6546 46.6458 16.5901 46.5927C16.584 46.5876 16.5759 46.5788 16.5647 46.5692C16.4537 46.4781 16.3633 46.3781 16.2903 46.2753C16.0298 46.234 15.783 46.1255 15.5764 45.9569C15.3434 45.7667 15.0869 45.5874 14.7747 45.37C14.433 45.1322 14.0172 44.841 13.6213 44.4999C12.6425 43.8228 12.0917 42.9565 11.9778 41.9276C11.8791 41.0365 12.1438 40.1595 12.2922 39.6239C12.4167 39.1746 12.5007 38.8436 12.5354 38.5458C11.8151 36.0171 11.5234 33.8919 11.7688 31.7499C11.8744 30.828 12.0774 29.9258 12.3694 29.0087C12.3608 29.0087 12.3524 29.0097 12.344 29.0096C12.083 29.0079 11.8266 28.9375 11.6008 28.8065C8.7619 27.1588 8.30867 23.1314 10.4182 20.7694C12.4072 18.3458 15.342 18.3168 17.5276 18.4247C17.7125 16.4938 18.3408 15.0217 19.2922 13.8553C20.4376 12.4515 21.9598 11.6216 23.1555 10.955C25.0751 9.88471 26.258 9.15704 26.6477 7.43347C26.647 7.39276 26.6454 7.34225 26.6428 7.26941C26.6365 7.09215 26.6175 6.69762 26.675 6.328C26.7193 6.04396 26.9093 5.09729 27.8918 4.73523L28.0129 4.69617ZM30.1653 36.1405C28.9808 36.1935 27.9221 36.7718 27.1584 37.7557C27.726 38.1821 28.4116 38.5234 29.0745 38.6669C29.8006 38.824 30.3778 38.7264 30.8147 38.4159C31.1532 38.1752 31.6723 37.7101 32.0598 37.2001C32.2513 36.948 32.3763 36.7295 32.4417 36.5624C32.4436 36.5573 32.4447 36.5516 32.4465 36.5468C32.3285 36.4855 32.1541 36.4156 31.9182 36.3505C31.2788 36.1738 30.535 36.1241 30.1663 36.1405H30.1653ZM17.7112 29.8075C17.6458 29.9351 17.5732 30.1264 17.5071 30.3866C17.3271 31.0956 17.3015 31.9176 17.3411 32.3026C17.3916 32.7942 17.7292 33.3414 18.4299 33.8319C18.9752 34.2135 19.6277 34.4724 20.22 34.5907C20.3772 33.7592 20.3272 32.783 20.0706 32.121L20.0051 31.9677C19.8729 31.6896 19.3711 31.0382 18.6877 30.4569C18.3633 30.181 18.058 29.9731 17.8098 29.8505C17.7733 29.8325 17.7399 29.8197 17.7112 29.8075Z" fill="#EF9D25" stroke="white" stroke-width="3" stroke-linejoin="round"/>
</svg>
