<svg width="54" height="54" viewBox="0 0 54 54" fill="none" xmlns="http://www.w3.org/2000/svg">
<path d="M27.8801 4.21375C28.6926 3.99001 29.5671 4.3011 30.054 5.00378C31.7412 7.43895 33.3737 11.0257 32.4299 14.6678C32.427 14.6792 32.4233 14.6907 32.4202 14.702C31.8954 16.5893 30.362 17.5499 29.6194 18.0565C29.269 18.2956 29.039 18.4643 28.884 18.5917C30.2324 19.0195 31.5795 19.5473 32.8997 20.2841L33.26 20.4911L33.344 20.5428C33.4272 20.5976 33.5057 20.6546 33.5823 20.7079C33.583 20.4644 33.565 20.1593 33.5305 19.7509C33.4305 18.5668 33.2123 16.583 34.7786 14.6678C35.7996 13.4196 37.397 12.546 38.8303 11.9784C40.307 11.3937 41.9185 11.013 43.2288 10.9218L43.4417 10.9178C43.9353 10.936 44.4078 11.1368 44.7649 11.4852C45.6654 12.3641 45.3895 13.4538 45.2229 13.8475C45.0621 14.2274 44.8233 14.5 44.717 14.6171C44.4734 14.8855 44.1637 15.1412 44.0334 15.2509C44.006 15.2739 43.9829 15.2928 43.9622 15.3104C43.1498 16.362 43.265 17.6485 43.6887 20.0839C44.0795 22.3296 44.7936 25.7987 42.2102 28.6649C42.0894 28.83 41.9631 28.9928 41.8303 29.1522C42.5628 29.8459 43.108 30.6079 43.5657 31.2841H43.5647C43.5708 31.2931 43.5782 31.3013 43.5842 31.3104C44.9436 33.3919 44.9871 35.9763 44.0022 37.9774C42.9738 40.0666 40.7796 41.5667 37.925 41.161V41.1591C37.6572 41.1265 37.2273 41.0529 36.8127 40.826C35.9154 42.2695 34.7334 43.7037 33.1262 44.6932C32.4962 45.1016 31.7955 45.4251 31.2502 45.6786H31.2493C30.1448 46.192 29.5806 46.4938 29.2659 46.87C29.2223 46.9221 29.1407 47.0434 28.9436 47.3534C28.76 47.6421 28.474 48.0973 28.1428 48.494C27.8548 48.839 27.2756 49.4628 26.3948 49.704L26.3958 49.7059C25.411 49.9806 24.2354 49.8243 23.4758 49.6844C22.618 49.5264 21.7741 49.2839 21.2366 49.0829C21.0861 49.0266 20.9442 48.9516 20.8127 48.8622C20.6094 48.8633 20.4044 48.8365 20.2053 48.7743C19.8785 48.672 18.9748 48.2981 18.2542 47.9862C17.8671 47.8187 17.4745 47.6443 17.1643 47.4969C17.0129 47.425 16.8566 47.3481 16.7229 47.2753C16.6593 47.2406 16.569 47.1892 16.4758 47.1278C16.4445 47.1072 16.401 47.0744 16.3489 47.035C16.333 47.0237 16.3173 47.0125 16.302 47.0009C16.2924 46.9932 16.2816 46.9865 16.2717 46.9784C16.2672 46.9747 16.2621 46.9686 16.2551 46.9628C16.1631 46.8881 16.0818 46.8087 16.01 46.7264C15.7378 46.6539 15.4814 46.5253 15.26 46.3446C15.0443 46.1686 14.8043 45.9993 14.4895 45.7802C14.1574 45.5489 13.7282 45.2503 13.3147 44.8964C12.2484 44.1514 11.612 43.1682 11.4807 41.9823C11.3695 40.9772 11.6681 40.0015 11.8098 39.4901C11.9211 39.0886 11.9912 38.8124 12.0266 38.5839C11.316 36.0605 11.0206 33.8939 11.2727 31.6932C11.3611 30.9215 11.5144 30.1653 11.7278 29.4071C11.597 29.364 11.47 29.3088 11.3499 29.2391C8.22692 27.4266 7.74225 23.0422 10.0286 20.4569C12.0327 18.0109 14.9248 17.8282 17.0852 17.9042C17.331 16.1129 17.9644 14.6924 18.9055 13.5389C20.1209 12.0492 21.7299 11.1777 22.9124 10.5184C24.8232 9.45304 25.7985 8.82107 26.1458 7.38367C26.1449 7.35558 26.1442 7.32492 26.1428 7.28699C26.1369 7.12267 26.1146 6.67693 26.1809 6.25085C26.2295 5.9385 26.4597 4.72954 27.719 4.2655L27.8801 4.21375ZM30.1877 36.6395C29.3331 36.6777 28.5439 37.0304 27.9094 37.6581C28.3177 37.901 28.7589 38.0865 29.1799 38.1776C29.8108 38.3142 30.2334 38.2155 30.5247 38.0087C30.8264 37.7942 31.3076 37.3631 31.6614 36.8973C31.6821 36.87 31.7004 36.8421 31.719 36.8163C31.1498 36.6692 30.4977 36.6257 30.1877 36.6395ZM17.9836 30.5428C17.8461 31.1038 17.8126 31.7405 17.8284 32.1083L17.8381 32.2509L17.8586 32.369C17.9295 32.6571 18.1651 33.036 18.7161 33.4218C19.0473 33.6536 19.4246 33.834 19.7952 33.9598C19.8369 33.3554 19.7719 32.7376 19.6077 32.3094L19.554 32.1825C19.5276 32.1272 19.4126 31.9356 19.1702 31.6473C18.9432 31.3775 18.6608 31.0906 18.3635 30.8378C18.2296 30.7238 18.1014 30.6261 17.9836 30.5428Z" fill="#FFD85F" stroke="#963B45" stroke-width="4" stroke-linejoin="round"/>
<path d="M28.0129 4.69617C28.6221 4.5285 29.2777 4.76123 29.6428 5.28796C31.3022 7.68281 32.8342 11.1137 31.9456 14.5428C31.9434 14.5512 31.941 14.5599 31.9387 14.5682C31.4702 16.253 30.1047 17.1199 29.3372 17.6434C28.6929 18.0829 28.3741 18.3292 28.2014 18.579L28.136 18.6874C28.1283 18.7019 28.0998 18.7644 28.0696 18.8661C29.6215 19.3236 31.1595 19.8857 32.6555 20.7206L33.0061 20.9218L33.0686 20.9608C33.3674 21.1576 33.6264 21.3508 33.8274 21.5009C33.8649 21.5289 33.9002 21.5547 33.9329 21.579C33.9415 21.566 33.9503 21.5527 33.9592 21.5389C34.1202 21.0804 34.102 20.5775 34.0286 19.7089C33.9281 18.5199 33.7388 16.7285 35.1653 14.9843H35.1663C36.1075 13.8337 37.6109 12.9992 39.0149 12.4432C40.4515 11.8744 42.0124 11.5079 43.2639 11.4208L43.4231 11.4178C43.7934 11.4314 44.1474 11.5822 44.4153 11.8436C45.1002 12.5121 44.8944 13.3415 44.7629 13.6522C44.6359 13.9525 44.4435 14.1747 44.3469 14.2811C44.1307 14.5194 43.8502 14.7519 43.7122 14.868C43.6821 14.8934 43.6566 14.9154 43.6331 14.9354C43.6198 14.9467 43.6079 14.9561 43.5979 14.9647C42.5938 16.2269 42.7754 17.755 43.1956 20.1698C43.5945 22.4627 44.2378 25.6815 41.8264 28.3436C41.6125 28.638 41.3796 28.9222 41.1262 29.1942C42 29.9229 42.6214 30.7811 43.1516 31.5643H43.1506C43.1552 31.5711 43.1608 31.5771 43.1653 31.5839C44.4237 33.5107 44.4642 35.9059 43.554 37.7557C42.6109 39.6718 40.6141 41.0381 37.9954 40.6659V40.6639C37.7351 40.6327 37.35 40.5667 37.0002 40.3602C36.8983 40.3 36.78 40.2163 36.6643 40.1034C36.6128 40.1921 36.5631 40.2821 36.51 40.37C35.6121 41.8576 34.4291 43.3207 32.8167 44.2987L32.8157 44.2977C32.2302 44.672 31.5798 44.9733 31.0393 45.2245C29.9602 45.7261 29.2819 46.0715 28.8821 46.5497C28.8129 46.6324 28.7121 46.7853 28.5217 47.0848C28.3342 47.3798 28.0657 47.8064 27.759 48.1737C27.4852 48.5017 26.9885 49.024 26.261 49.2225L26.262 49.2235C26.2592 49.2243 26.2559 49.2247 26.2532 49.2255C26.2479 49.2269 26.2428 49.229 26.2375 49.2303L26.2366 49.2294C25.3771 49.4611 24.3166 49.3304 23.5667 49.1923C22.736 49.0393 21.9208 48.8042 21.4124 48.6141C21.2498 48.5533 21.1001 48.4644 20.969 48.3534C20.7651 48.3762 20.5561 48.3597 20.3547 48.2968C20.0587 48.2042 19.1819 47.8429 18.4524 47.5272C18.0678 47.3608 17.6816 47.1885 17.3792 47.0448C17.2307 46.9743 17.0839 46.9021 16.9622 46.8358C16.9037 46.804 16.8266 46.7611 16.7502 46.7108C16.7129 46.6862 16.6546 46.6458 16.5901 46.5927C16.584 46.5876 16.5759 46.5788 16.5647 46.5692C16.4537 46.4781 16.3633 46.3781 16.2903 46.2753C16.0298 46.234 15.783 46.1255 15.5764 45.9569C15.3434 45.7667 15.0869 45.5874 14.7747 45.37C14.433 45.1322 14.0172 44.841 13.6213 44.4999C12.6425 43.8228 12.0917 42.9565 11.9778 41.9276C11.8791 41.0365 12.1438 40.1595 12.2922 39.6239C12.4167 39.1746 12.5007 38.8436 12.5354 38.5458C11.8151 36.0171 11.5234 33.8919 11.7688 31.7499C11.8744 30.828 12.0774 29.9258 12.3694 29.0087C12.3608 29.0087 12.3524 29.0097 12.344 29.0096C12.083 29.0079 11.8266 28.9375 11.6008 28.8065C8.7619 27.1588 8.30867 23.1314 10.4182 20.7694C12.4072 18.3458 15.342 18.3168 17.5276 18.4247C17.7125 16.4938 18.3408 15.0217 19.2922 13.8553C20.4376 12.4515 21.9598 11.6216 23.1555 10.955C25.0751 9.88471 26.258 9.15704 26.6477 7.43347C26.647 7.39276 26.6454 7.34225 26.6428 7.26941C26.6365 7.09215 26.6175 6.69762 26.675 6.328C26.7193 6.04396 26.9093 5.09729 27.8918 4.73523L28.0129 4.69617ZM30.1653 36.1405C28.9808 36.1935 27.9221 36.7718 27.1584 37.7557C27.726 38.1821 28.4116 38.5234 29.0745 38.6669C29.8006 38.824 30.3778 38.7264 30.8147 38.4159C31.1532 38.1752 31.6723 37.7101 32.0598 37.2001C32.2513 36.948 32.3763 36.7295 32.4417 36.5624C32.4436 36.5573 32.4447 36.5516 32.4465 36.5468C32.3285 36.4855 32.1541 36.4156 31.9182 36.3505C31.2788 36.1738 30.535 36.1241 30.1663 36.1405H30.1653ZM17.7112 29.8075C17.6458 29.9351 17.5732 30.1264 17.5071 30.3866C17.3271 31.0956 17.3015 31.9176 17.3411 32.3026C17.3916 32.7942 17.7292 33.3414 18.4299 33.8319C18.9752 34.2135 19.6277 34.4724 20.22 34.5907C20.3772 33.7592 20.3272 32.783 20.0706 32.121L20.0051 31.9677C19.8729 31.6896 19.3711 31.0382 18.6877 30.4569C18.3633 30.181 18.058 29.9731 17.8098 29.8505C17.7733 29.8325 17.7399 29.8197 17.7112 29.8075Z" fill="#FFD85F" stroke="white" stroke-width="3" stroke-linejoin="round"/>
</svg>
