<svg width="48" height="48" viewBox="0 0 48 48" fill="none" xmlns="http://www.w3.org/2000/svg">
<path d="M24.542 1.83862C25.1511 1.67096 25.8067 1.90368 26.1719 2.43042C27.8312 4.82526 29.3632 8.25614 28.4746 11.6853C28.4724 11.6937 28.4701 11.7023 28.4678 11.7107C27.9993 13.3955 26.6337 14.2624 25.8662 14.7859C25.2219 15.2254 24.9031 15.4716 24.7305 15.7214L24.665 15.8298C24.6574 15.8444 24.6289 15.9069 24.5986 16.0085C26.1506 16.4661 27.6886 17.0282 29.1846 17.863L29.5352 18.0642L29.5977 18.1033C29.8964 18.3001 30.1555 18.4933 30.3564 18.6433C30.394 18.6713 30.4292 18.6971 30.4619 18.7214C30.4705 18.7085 30.4793 18.6951 30.4883 18.6814C30.6492 18.2229 30.631 17.72 30.5576 16.8513C30.4572 15.6624 30.2678 13.871 31.6943 12.1267H31.6953C32.6365 10.9762 34.14 10.1416 35.5439 9.58569C36.9805 9.01685 38.5414 8.65032 39.793 8.56323L39.9521 8.5603C40.3224 8.57389 40.6765 8.72469 40.9443 8.98608C41.6292 9.65458 41.4234 10.484 41.292 10.7947C41.1649 11.095 40.9725 11.3172 40.876 11.4236C40.6597 11.6619 40.3792 11.8943 40.2412 12.0105C40.2111 12.0358 40.1857 12.0579 40.1621 12.0779C40.1488 12.0892 40.1369 12.0986 40.127 12.1072C39.1228 13.3693 39.3044 14.8974 39.7246 17.3123C40.1236 19.6051 40.7668 22.824 38.3555 25.4861C38.1415 25.7804 37.9086 26.0647 37.6553 26.3367C38.5291 27.0653 39.1505 27.9236 39.6807 28.7068H39.6797C39.6842 28.7135 39.6899 28.7195 39.6943 28.7263C40.9527 30.6532 40.9933 33.0484 40.083 34.8982C39.14 36.8142 37.1432 38.1805 34.5244 37.8083V37.8064C34.2642 37.7751 33.8791 37.7091 33.5293 37.5027C33.4273 37.4425 33.3091 37.3588 33.1934 37.2458C33.1419 37.3345 33.0921 37.4245 33.0391 37.5125C32.1412 39.0001 30.9582 40.4632 29.3457 41.4412L29.3447 41.4402C28.7593 41.8145 28.1088 42.1157 27.5684 42.3669C26.4893 42.8685 25.811 43.214 25.4111 43.6921C25.3419 43.7749 25.2412 43.9278 25.0508 44.2273C24.8633 44.5222 24.5947 44.9488 24.2881 45.3162C24.0142 45.6441 23.5175 46.1665 22.79 46.365L22.791 46.366C22.7883 46.3667 22.785 46.3672 22.7822 46.3679C22.777 46.3693 22.7719 46.3714 22.7666 46.3728L22.7656 46.3718C21.9061 46.6036 20.8456 46.4728 20.0957 46.3347C19.265 46.1817 18.4499 45.9467 17.9414 45.7566C17.7788 45.6958 17.6292 45.6068 17.498 45.4958C17.2941 45.5187 17.0852 45.5022 16.8838 45.4392C16.5878 45.3466 15.7109 44.9854 14.9814 44.6697C14.5968 44.5032 14.2107 44.3309 13.9082 44.1873C13.7597 44.1167 13.6129 44.0445 13.4912 43.9783C13.4328 43.9464 13.3556 43.9035 13.2793 43.8533C13.242 43.8287 13.1836 43.7882 13.1191 43.7351C13.1131 43.7301 13.1049 43.7212 13.0938 43.7117C12.9828 43.6206 12.8923 43.5206 12.8193 43.4177C12.5588 43.3764 12.312 43.2679 12.1055 43.0994C11.8724 42.9092 11.6159 42.7298 11.3037 42.5125C10.9621 42.2746 10.5462 41.9835 10.1504 41.6423C9.1716 40.9653 8.62079 40.099 8.50684 39.0701C8.40817 38.179 8.6729 37.302 8.82129 36.7664C8.94577 36.3171 9.02976 35.986 9.06445 35.6882C8.34414 33.1596 8.05248 31.0344 8.29785 28.8923C8.40347 27.9704 8.60648 27.0682 8.89844 26.1511C8.88988 26.1512 8.88141 26.1522 8.87305 26.1521C8.61201 26.1504 8.35568 26.08 8.12988 25.949C5.29095 24.3012 4.83773 20.2739 6.94727 17.9119C8.93622 15.4883 11.8711 15.4593 14.0566 15.5671C14.2416 13.6363 14.8699 12.1642 15.8213 10.9978C16.9666 9.59394 18.4888 8.7641 19.6846 8.09741C21.6041 7.02716 22.7871 6.2995 23.1768 4.57593C23.1761 4.53521 23.1745 4.48471 23.1719 4.41187C23.1655 4.2346 23.1466 3.84008 23.2041 3.47046C23.2483 3.18642 23.4384 2.23974 24.4209 1.87769L24.542 1.83862ZM26.6943 33.283C25.5098 33.3359 24.4511 33.9143 23.6875 34.8982C24.255 35.3246 24.9407 35.6659 25.6035 35.8093C26.3297 35.9664 26.9069 35.8688 27.3438 35.5583C27.6822 35.3176 28.2014 34.8526 28.5889 34.3425C28.7803 34.0904 28.9054 33.872 28.9707 33.7048C28.9727 33.6997 28.9738 33.6941 28.9756 33.6892C28.8576 33.6279 28.6831 33.5581 28.4473 33.4929C27.8078 33.3163 27.064 33.2666 26.6953 33.283H26.6943ZM14.2402 26.95C14.1749 27.0775 14.1022 27.2688 14.0361 27.5291C13.8561 28.2381 13.8306 29.06 13.8701 29.4451C13.9207 29.9367 14.2582 30.4838 14.959 30.9744C15.5043 31.356 16.1567 31.6149 16.749 31.7332C16.9063 30.9017 16.8562 29.9254 16.5996 29.2634L16.5342 29.1101C16.4019 28.8321 15.9002 28.1806 15.2168 27.5994C14.8923 27.3234 14.587 27.1155 14.3389 26.9929C14.3024 26.9749 14.2689 26.9622 14.2402 26.95Z" fill="#FFD85F" stroke="white" stroke-width="3" stroke-linejoin="round"/>
</svg>
