<svg width="46" height="39" viewBox="0 0 46 39" fill="none" xmlns="http://www.w3.org/2000/svg">
<g clip-path="url(#clip0_257_2)">
<path d="M39.4441 0.00525082L6.51089 0.0294468C2.93388 0.0320748 0.0312133 2.91162 0.0275891 6.46109L0.00635105 27.2608C0.0027268 30.8102 2.89952 33.6855 6.47652 33.6829L39.4098 33.6587C42.9868 33.6561 45.8895 30.7765 45.8931 27.227L45.9143 6.42737C45.9179 2.87791 43.0211 0.00262281 39.4441 0.00525082Z" fill="#DB4538"/>
<path d="M7.57081 31.3894L17.9728 31.3868L10.0187 38.4308C9.07233 39.2683 7.56236 38.6014 7.56666 37.3468L7.57225 31.4023L7.57081 31.3894Z" fill="#DB4538"/>
<path d="M17.2391 15.7551L19.7837 7.1093C20.0088 6.34452 20.399 5.81075 20.9543 5.50799C21.5096 5.20523 22.0857 5.14169 22.6826 5.31737C23.2795 5.49305 23.7266 5.86786 24.0238 6.44181C24.3452 7.0026 24.3961 7.65606 24.1765 8.40219L21.632 17.048C21.4124 17.7941 21.0128 18.3252 20.4334 18.6411C19.8781 18.9438 19.302 19.0074 18.7051 18.8317C18.1082 18.656 17.6584 18.2905 17.3556 17.7352C17.0528 17.18 17.014 16.5199 17.2391 15.7551ZM18.541 25.381C18.023 25.6947 17.4189 25.75 16.7287 25.5469C16.0385 25.3438 15.558 24.9794 15.287 24.4537C15.0402 23.9149 15.0047 23.347 15.1804 22.7501C15.3505 22.1719 15.6853 21.7231 16.1846 21.4039C16.7026 21.0902 17.3067 21.0349 17.9969 21.238C18.6871 21.4411 19.1649 21.8148 19.4303 22.3592C19.6958 22.9035 19.7434 23.4648 19.5732 24.043C19.403 24.6213 19.0589 25.0673 18.541 25.381ZM24.9773 18.0326L27.5219 9.38678C27.747 8.62199 28.1372 8.08822 28.6925 7.78546C29.2478 7.4827 29.8239 7.41916 30.4208 7.59484C31.0177 7.77052 31.4648 8.14534 31.762 8.71929C32.0835 9.28007 32.1344 9.93353 31.9148 10.6797L29.3702 19.3255C29.1506 20.0716 28.7511 20.6026 28.1716 20.9186C27.6163 21.2213 27.0402 21.2849 26.4433 21.1092C25.8464 20.9335 25.3966 20.568 25.0938 20.0127C24.7911 19.4574 24.7522 18.7974 24.9773 18.0326ZM26.2792 27.6585C25.7612 27.9722 25.1571 28.0275 24.4669 27.8244C23.7768 27.6213 23.2962 27.2569 23.0253 26.7312C22.7785 26.1924 22.7429 25.6245 22.9186 25.0276C23.0888 24.4493 23.4235 24.0006 23.9229 23.6814C24.4409 23.3676 25.0449 23.3123 25.7351 23.5155C26.4253 23.7186 26.9031 24.0923 27.1685 24.6366C27.434 25.1809 27.4816 25.7422 27.3114 26.3205C27.1413 26.8987 26.7972 27.3447 26.2792 27.6585Z" fill="white"/>
</g>
<defs>
<clipPath id="clip0_257_2">
<rect width="46" height="39" fill="white"/>
</clipPath>
</defs>
</svg>
