<svg width="46" height="39" viewBox="0 0 46 39" fill="none" xmlns="http://www.w3.org/2000/svg">
<g clip-path="url(#clip0_257_2)">
<path d="M39.4441 0.00525082L6.51089 0.0294468C2.93388 0.0320748 0.0312133 2.91162 0.0275891 6.46109L0.00635105 27.2608C0.0027268 30.8102 2.89952 33.6855 6.47652 33.6829L39.4098 33.6587C42.9868 33.6561 45.8895 30.7765 45.8931 27.227L45.9143 6.42737C45.9179 2.87791 43.0211 0.00262281 39.4441 0.00525082Z" fill="#DB4538"/>
<path d="M7.57081 31.3894L17.9728 31.3868L10.0187 38.4308C9.07233 39.2683 7.56236 38.6014 7.56666 37.3468L7.57225 31.4023L7.57081 31.3894Z" fill="#DB4538"/>
<path d="M17.3804 16.3257L19.5615 8.91496C19.7545 8.25943 20.0889 7.80191 20.5649 7.54241C21.0408 7.2829 21.5346 7.22844 22.0463 7.37902C22.5579 7.5296 22.9411 7.85087 23.1959 8.34283C23.4714 8.8235 23.5151 9.38361 23.3268 10.0232L21.1457 17.4339C20.9575 18.0734 20.6151 18.5286 20.1184 18.7994C19.6424 19.0589 19.1486 19.1133 18.637 18.9627C18.1254 18.8122 17.7398 18.4989 17.4803 18.0229C17.2208 17.5469 17.1875 16.9812 17.3804 16.3257ZM18.4963 24.5764C18.0523 24.8453 17.5345 24.8927 16.943 24.7186C16.3514 24.5445 15.9395 24.2322 15.7073 23.7816C15.4957 23.3198 15.4652 22.833 15.6158 22.3214C15.7617 21.8257 16.0486 21.4411 16.4766 21.1675C16.9206 20.8986 17.4384 20.8512 18.03 21.0253C18.6216 21.1994 19.0311 21.5197 19.2586 21.9863C19.4862 22.4528 19.527 22.9339 19.3811 23.4296C19.2352 23.9252 18.9403 24.3075 18.4963 24.5764ZM24.0132 18.2778L26.1943 10.8671C26.3872 10.2116 26.7217 9.75403 27.1976 9.49453C27.6736 9.23502 28.1674 9.18056 28.679 9.33114C29.1907 9.48172 29.5739 9.80299 29.8287 10.2949C30.1042 10.7756 30.1478 11.3357 29.9596 11.9753L27.7785 19.386C27.5903 20.0255 27.2478 20.4807 26.7512 20.7515C26.2752 21.011 25.7814 21.0654 25.2698 20.9149C24.7581 20.7643 24.3726 20.451 24.1131 19.975C23.8536 19.4991 23.8203 18.9333 24.0132 18.2778ZM25.1291 26.5285C24.6851 26.7975 24.1673 26.8449 23.5757 26.6707C22.9842 26.4966 22.5722 26.1843 22.34 25.7337C22.1285 25.2719 22.098 24.7851 22.2486 24.2735C22.3944 23.7779 22.6814 23.3932 23.1094 23.1196C23.5534 22.8507 24.0712 22.8033 24.6627 22.9774C25.2543 23.1515 25.6639 23.4718 25.8914 23.9384C26.1189 24.4049 26.1598 24.886 26.0139 25.3817C25.868 25.8773 25.5731 26.2596 25.1291 26.5285Z" fill="white"/>
</g>
<defs>
<clipPath id="clip0_257_2">
<rect width="46" height="39" fill="white"/>
</clipPath>
</defs>
</svg>
