<svg width="71" height="40" viewBox="0 0 71 40" fill="none" xmlns="http://www.w3.org/2000/svg">
<g clip-path="url(#clip0_258_8)">
<rect x="34.7898" y="16.4721" width="26" height="3" rx="1.5" transform="rotate(-16.9938 34.7898 16.4721)" fill="#FFF7E3"/>
<mask id="mask0_258_8" style="mask-type:luminance" maskUnits="userSpaceOnUse" x="26" y="-7" width="29" height="36">
<path d="M54.3846 -7H26V29H54.3846V-7Z" fill="white"/>
</mask>
<g mask="url(#mask0_258_8)">
<path d="M40.1986 29.0136C47.1799 29.0136 52.8392 23.79 52.8392 17.3463C52.8392 10.9027 47.1799 5.67908 40.1986 5.67908C33.2175 5.67908 27.5581 10.9027 27.5581 17.3463C27.5581 23.79 33.2175 29.0136 40.1986 29.0136Z" fill="#338493"/>
</g>
<mask id="mask1_258_8" style="mask-type:luminance" maskUnits="userSpaceOnUse" x="13" y="-6" width="31" height="40">
<path d="M44 -5.31702H13V34H44V-5.31702Z" fill="white"/>
</mask>
<g mask="url(#mask1_258_8)">
<path d="M28.5071 34.0149C36.1316 34.0149 42.3123 28.31 42.3123 21.2726C42.3123 14.2352 36.1316 8.53033 28.5071 8.53033C20.8827 8.53033 14.7019 14.2352 14.7019 21.2726C14.7019 28.31 20.8827 34.0149 28.5071 34.0149Z" fill="#F1D59B"/>
</g>
<mask id="mask2_258_8" style="mask-type:luminance" maskUnits="userSpaceOnUse" x="0" y="0" width="32" height="40">
<path d="M31.5385 0H0V40H31.5385V0Z" fill="white"/>
</mask>
<g mask="url(#mask2_258_8)">
<path d="M15.7765 40.0153C23.5334 40.0153 29.8215 34.2113 29.8215 27.0516C29.8215 19.892 23.5334 14.088 15.7765 14.088C8.01963 14.088 1.73145 19.892 1.73145 27.0516C1.73145 34.2113 8.01963 40.0153 15.7765 40.0153Z" fill="#DB4538"/>
<path d="M14.3435 7.79978C14.4486 6.25649 13.3031 4.93648 11.785 4.85147C10.2669 4.76645 8.95098 5.94862 8.84586 7.49192L8.10103 18.4277C7.99591 19.971 9.14136 21.291 10.6595 21.376C12.1776 21.4611 13.4935 20.2789 13.5986 18.7356L14.3435 7.79978Z" fill="#DB4538"/>
<path d="M17.1506 17.2819C16.6563 18.7477 17.4187 20.3439 18.8535 20.8472C20.2883 21.3504 21.8522 20.5702 22.3465 19.1044L25.8494 8.71804C26.3437 7.25229 25.5813 5.65609 24.1465 5.15284C22.7117 4.64958 21.1478 5.42984 20.6535 6.8956L17.1506 17.2819Z" fill="#DB4538"/>
</g>
</g>
<defs>
<clipPath id="clip0_258_8">
<rect width="71" height="40" fill="white"/>
</clipPath>
</defs>
</svg>
